<svg width="875.9900146484375px" height="107.36000366210938px" xmlns="http://www.w3.org/2000/svg" viewBox="-187.99500732421876 21.31999816894531 875.9900146484375 107.36000366210938" style="background: rgba(255, 255, 255, 0);" preserveAspectRatio="xMidYMid"><defs><filter id="editing-hole" x="-100%" y="-100%" width="300%" height="300%"><feFlood flood-color="#ffffff" result="black"></feFlood><feMorphology operator="dilate" radius="2" in="SourceGraphic" result="erode"></feMorphology><feGaussianBlur in="erode" stdDeviation="4" result="blur"></feGaussianBlur><feOffset in="blur" dx="2" dy="2" result="offset"></feOffset><feComposite operator="atop" in="offset" in2="black" result="merge"></feComposite><feComposite operator="in" in="merge" in2="SourceGraphic" result="inner-shadow"></feComposite></filter></defs><g filter="url(#editing-hole)"><g transform="translate(-65.90495681762695, 95.96000480651855)"><path d="M42.56-41.02L46.59 0L41.98 0L41.02-12.48L38.85-32.90L38.40-32.90L27.01-4.74L22.78-4.74L11.97-32.90L11.46-32.90L9.28-12.86L8.19 0L3.84 0L8.13-41.02L13.95-41.02L16.06-34.75L24.96-11.39L25.34-11.39L34.69-35.14L36.80-41.02L42.56-41.02ZM79.55-4.48L79.87-3.97L79.49 0L56.45 0L56.77-12.35L56.45-41.02L79.55-41.02L79.81-40.51L79.42-36.54L69.76-36.74L61.63-36.61L61.50-23.17L69.18-23.04L75.97-23.23L76.35-22.78L75.90-18.82L68.74-18.94L61.44-18.88L61.38-12.80L61.57-4.29L69.70-4.22L79.55-4.48ZM110.40-4.48L110.72-3.97L110.34 0L87.30 0L87.62-12.35L87.30-41.02L110.40-41.02L110.66-40.51L110.27-36.54L100.61-36.74L92.48-36.61L92.35-23.17L100.03-23.04L106.82-23.23L107.20-22.78L106.75-18.82L99.58-18.94L92.29-18.88L92.22-12.80L92.42-4.29L100.54-4.22L110.40-4.48ZM141.82-41.02L142.21-40.51L141.82-36.54L134.66-36.93L130.50-36.93L130.30-12.80L130.50 0L125.31 0L125.70-12.35L125.38-36.93L121.22-36.93L113.92-36.54L113.60-37.06L113.98-41.02L141.82-41.02ZM183.74-41.02L184.13-40.51L183.74-36.54L176.58-36.93L172.42-36.93L172.22-12.80L172.42 0L167.23 0L167.62-12.35L167.30-36.93L163.14-36.93L155.84-36.54L155.52-37.06L155.90-41.02L183.74-41.02ZM223.23-41.02L222.98-12.80L223.10 0L218.05 0L218.30-12.35L218.24-18.50L206.85-18.56L196.42-18.50L196.35-12.80L196.54 0L191.49 0L191.68-12.35L191.49-41.02L196.61-41.02L196.42-22.85L207.30-22.78L218.24-22.85L218.05-41.02L223.23-41.02ZM258.30-4.48L258.62-3.97L258.24 0L235.20 0L235.52-12.35L235.20-41.02L258.30-41.02L258.56-40.51L258.18-36.54L248.51-36.74L240.38-36.61L240.26-23.17L247.94-23.04L254.72-23.23L255.10-22.78L254.66-18.82L247.49-18.94L240.19-18.88L240.13-12.80L240.32-4.29L248.45-4.22L258.30-4.48ZM313.22-41.02L317.25 0L312.64 0L311.68-12.48L309.50-32.90L309.06-32.90L297.66-4.74L293.44-4.74L282.62-32.90L282.11-32.90L279.94-12.86L278.85 0L274.50 0L278.78-41.02L284.61-41.02L286.72-34.75L295.62-11.39L296-11.39L305.34-35.14L307.46-41.02L313.22-41.02ZM343.04-41.02L356.74 0L351.49 0L350.53-4.10L348.22-11.14L339.01-11.33L330.69-11.14L328.19-4.35L327.17 0L322.05 0L337.09-41.02L343.04-41.02ZM339.46-15.36L346.82-15.49L340.16-35.71L339.71-35.71L332.29-15.49L339.46-15.36ZM375.23-41.34L375.23-41.34Q379.65-41.34 384.38-39.42L384.38-39.42L383.55-34.50L382.66-34.24L382.66-34.24Q380.80-35.65 378.72-36.42L378.72-36.42L378.72-36.42Q376.64-37.18 374.59-37.18L374.59-37.18L374.59-37.18Q372.22-37.18 370.46-36.22L370.46-36.22L370.46-36.22Q368.70-35.26 367.78-33.73L367.78-33.73L367.78-33.73Q366.85-32.19 366.85-30.53L366.85-30.53L366.85-30.53Q366.85-28.80 367.90-27.49L367.90-27.49L367.90-27.49Q368.96-26.18 370.56-25.22L370.56-25.22L370.56-25.22Q372.16-24.26 374.91-22.91L374.91-22.91L374.91-22.91Q378.37-21.31 380.48-19.94L380.48-19.94L380.48-19.94Q382.59-18.56 384.10-16.45L384.10-16.45L384.10-16.45Q385.60-14.34 385.60-11.33L385.60-11.33L385.60-11.33Q385.60-8.13 383.87-5.44L383.87-5.44L383.87-5.44Q382.14-2.75 379.01-1.15L379.01-1.15L379.01-1.15Q375.87 0.45 371.84 0.45L371.84 0.45L371.84 0.45Q369.15 0.45 366.24-0.29L366.24-0.29L366.24-0.29Q363.33-1.02 360.83-2.43L360.83-2.43L361.47-7.68L362.18-8L362.18-8Q364.42-5.82 367.14-4.77L367.14-4.77L367.14-4.77Q369.86-3.71 372.35-3.71L372.35-3.71L372.35-3.71Q374.78-3.71 376.67-4.67L376.67-4.67L376.67-4.67Q378.56-5.63 379.55-7.23L379.55-7.23L379.55-7.23Q380.54-8.83 380.54-10.62L380.54-10.62L380.54-10.62Q380.54-13.31 378.50-14.94L378.50-14.94L378.50-14.94Q376.45-16.58 372.29-18.50L372.29-18.50L372.29-18.50Q368.90-20.16 366.85-21.47L366.85-21.47L366.85-21.47Q364.80-22.78 363.33-24.86L363.33-24.86L363.33-24.86Q361.86-26.94 361.86-29.95L361.86-29.95L361.86-29.95Q361.86-33.09 363.55-35.71L363.55-35.71L363.55-35.71Q365.25-38.34 368.29-39.84L368.29-39.84L368.29-39.84Q371.33-41.34 375.23-41.34L375.23-41.34ZM416.96-41.02L417.34-40.51L416.96-36.54L409.79-36.93L405.63-36.93L405.44-12.80L405.63 0L400.45 0L400.83-12.35L400.51-36.93L396.35-36.93L389.06-36.54L388.74-37.06L389.12-41.02L416.96-41.02ZM447.74-4.48L448.06-3.97L447.68 0L424.64 0L424.96-12.35L424.64-41.02L447.74-41.02L448.00-40.51L447.62-36.54L437.95-36.74L429.82-36.61L429.70-23.17L437.38-23.04L444.16-23.23L444.54-22.78L444.10-18.82L436.93-18.94L429.63-18.88L429.57-12.80L429.76-4.29L437.89-4.22L447.74-4.48ZM472.19-16.58L472.19-16.58Q476.42-9.60 482.82-1.22L482.82-1.22L482.75-0.58L482.75-0.58Q480.45 0.32 478.02 0.58L478.02 0.58L477.31 0.13L477.31 0.13Q472.06-7.74 467.90-15.23L467.90-15.23L460.42-15.23L460.42-12.80L460.67 0L455.49 0L455.81-12.35L455.49-41.02L468.03-41.09L468.03-41.09Q474.05-41.09 477.34-38.05L477.34-38.05L477.34-38.05Q480.64-35.01 480.64-29.38L480.64-29.38L480.64-29.38Q480.64-25.15 478.43-21.79L478.43-21.79L478.43-21.79Q476.22-18.43 472.19-16.58L472.19-16.58ZM460.67-36.67L460.48-19.58L468.16-19.39L468.16-19.39Q475.33-21.44 475.33-28.93L475.33-28.93L475.33-28.93Q475.33-32.83 473.22-34.78L473.22-34.78L473.22-34.78Q471.10-36.74 466.88-36.86L466.88-36.86L460.67-36.67ZM503.55-41.09L503.55-41.09Q509.57-41.09 512.83-37.98L512.83-37.98L512.83-37.98Q516.10-34.88 516.10-29.06L516.10-29.06L516.10-29.06Q516.10-22.21 512.03-18.30L512.03-18.30L512.03-18.30Q507.97-14.40 500.80-14.40L500.80-14.40L495.94-14.40L495.94-12.80L496.19 0L491.01 0L491.33-12.35L491.01-41.02L503.55-41.09ZM502.72-18.56L502.72-18.56Q506.69-19.20 508.77-21.76L508.77-21.76L508.77-21.76Q510.85-24.32 510.85-28.61L510.85-28.61L510.85-28.61Q510.85-36.54 502.40-36.86L502.40-36.86L496.19-36.67L496.00-18.69L502.72-18.56ZM529.54-41.02L529.22-12.80L529.47 0L524.29 0L524.61-12.35L524.29-41.02L529.54-41.02ZM564.54-4.48L564.86-3.97L564.48 0L541.44 0L541.76-12.35L541.44-41.02L564.54-41.02L564.80-40.51L564.42-36.54L554.75-36.74L546.62-36.61L546.50-23.17L554.18-23.04L560.96-23.23L561.34-22.78L560.90-18.82L553.73-18.94L546.43-18.88L546.37-12.80L546.56-4.29L554.69-4.22L564.54-4.48ZM585.92-41.34L585.92-41.34Q592.38-41.34 597.12-38.27L597.12-38.27L596.10-33.60L595.52-33.47L595.52-33.47Q591.23-37.06 585.66-37.06L585.66-37.06L585.66-37.06Q579.58-37.06 576.32-32.86L576.32-32.86L576.32-32.86Q573.06-28.67 573.06-20.61L573.06-20.61L573.06-20.61Q573.06-12.48 576.32-8.19L576.32-8.19L576.32-8.19Q579.58-3.90 585.54-3.90L585.54-3.90L585.54-3.90Q588.35-3.90 591.14-4.93L591.14-4.93L591.14-4.93Q593.92-5.95 596.22-7.81L596.22-7.81L596.86-7.49L596.42-2.62L596.42-2.62Q590.85 0.45 585.09 0.45L585.09 0.45L585.09 0.45Q576.83 0.45 572.29-4.90L572.29-4.90L572.29-4.90Q567.74-10.24 567.74-20.16L567.74-20.16L567.74-20.16Q567.74-30.34 572.48-35.84L572.48-35.84L572.48-35.84Q577.22-41.34 585.92-41.34L585.92-41.34ZM627.65-4.48L627.97-3.97L627.58 0L604.54 0L604.86-12.35L604.54-41.02L627.65-41.02L627.90-40.51L627.52-36.54L617.86-36.74L609.73-36.61L609.60-23.17L617.28-23.04L624.06-23.23L624.45-22.78L624-18.82L616.83-18.94L609.54-18.88L609.47-12.80L609.66-4.29L617.79-4.22L627.65-4.48Z" fill="#d2d2d2"></path></g></g><style>text {
  font-size: 64px;
  font-family: Arial Black;
  dominant-baseline: central;
  text-anchor: middle;
}</style></svg>